<svg id="Capa_1" data-name="Capa 1" xmlns="http://www.w3.org/2000/svg" viewBox="0 0 527 464">
    <title>programmer</title>
    <path style="fill: #13a0d3;"
          d="M401.51,77.53a34.08,34.08,0,0,0-20.84,7.1,111.22,111.22,0,0,1,11,9,20.5,20.5,0,0,1,24.2,32.6,109.17,109.17,0,0,1,5.46,13.21,34.16,34.16,0,0,0-19.85-62Z"
          transform="translate(-16 -32)"/>
    <path style="fill: #13a0d3;" d="M475.06,88H462.39c-.14-.33-.27-.66-.4-1l9-9a8,8,0,0,0,0-11.32L448.32,44.11a8.24,8.24,0,0,0-11.32,0l-9,9-1-.4V40a8,8,0,0,0-8-8h-32a8,8,0,0,0-8,8V52.67l-1,.4-9-9a8,8,0,0,0-11.32,0l-17.3,17.3a142.77,142.77,0,0,1,15,7.62l8-8,7.3,7.3a8,8,0,0,0,9.48,1.38A47.33,47.33,0,0,1,389.35,66a8,8,0,0,0,5.71-7.66V48h16V58.35A8,8,0,0,0,416.78,66a47,47,0,0,1,9.11,3.75,8,8,0,0,0,9.47-1.38l7.31-7.3L454,72.4l-7.3,7.3a8,8,0,0,0-1.38,9.48A47.33,47.33,0,0,1,449,98.29a8,8,0,0,0,7.67,5.72h10.34v16H456.71a8,8,0,0,0-7.67,5.72,47,47,0,0,1-3.75,9.11,8,8,0,0,0,1.38,9.47l7.3,7.31-11.31,11.29-7.3-7.3a8,8,0,0,0-9.48-1.38,44.35,44.35,0,0,1-4.35,2.07c-1.53,1.7,3,10.45,3,10.45l3.54,4.18,9,9a8,8,0,0,0,11.32,0L471,157.26a8,8,0,0,0,0-11.32l-9-9c.13-.32.27-.65.4-1h12.67a8,8,0,0,0,8-8V96A8,8,0,0,0,475.06,88Z"
          transform="translate(-16 -32)"/>
    <path style="fill: #13a0d3;" d="M254.73,293.26c.55,0,1.1,0,1.65,0h-1.65Z" transform="translate(-16 -32)"/>
    <path style="fill: #13a0d3;" d="M256.14,278.39c-.47,0-.94,0-1.41,0v-.23h8.51C260.88,278.31,258.52,278.4,256.14,278.39Z"
          transform="translate(-16 -32)"/>
    <path style="fill: #13a0d3;" d="M543,225.15V243.7H320.58c-3.09,0-6.3.07-9.4.14s-6.43.14-9.69.14c-1.93,0-3.86,0-5.78-.09-1.06.06-2.16.09-3.26.09a62.31,62.31,0,0,1-28.58-7l-.3-.1-.13-.13a62.14,62.14,0,1,1,90.67-47.07l-.22,1.75H335.15l.41-2.34a43.72,43.72,0,1,0-45.73,36.34h.81c.65,0,1.29,0,1.92.05,2.12.11,4.14,0,6.27,0,1.43,0,2.9-.08,4.43-.06h1.12c4.44,0,8.94,0,13.3-.06l7.71-.06,4.82,0,10.81-.07c7.71,0,15.68-.1,23.52-.1Z"
          transform="translate(-16 -32)"/>
    <path style="fill: #13a0d3;" d="M543,274.39v16.8H317.83c-7.54,0-15.29.23-21.93.35h-.21l-4.13.05a108.79,108.79,0,0,1-11.91-.74A109.72,109.72,0,0,1,207.81,112h.1a111.55,111.55,0,0,1,53.81-35.25v-.32a107.2,107.2,0,0,1,16-3.39,110.1,110.1,0,0,1,14.73-1c.42,0,.85,0,1.27,0A109.88,109.88,0,0,1,402.23,181.82q0,3.86-.27,7.65H384.91q.32-3.78.32-7.65a92.77,92.77,0,1,0-92.78,92.78q3.12,0,6.18-.21h52.78l0,0q4.2,0,8.4,0H543Z"
          transform="translate(-16 -32)"/>
    <path style="fill: #13a0d3;" d="M464,307v53a8,8,0,0,1-8,8H56a8,8,0,0,1-8-8V152a8,8,0,0,1,8-8H81.75v16H64V352H448V307Z"
          transform="translate(-16 -32)"/>
    <path style="fill: #13a0d3;" d="M496,376V307H480v69a24,24,0,0,1-24,24H56a24,24,0,0,1-24-24V152a24,24,0,0,1,24-24H81.75V112H56a40.05,40.05,0,0,0-40,40V376a40.05,40.05,0,0,0,40,40H187.06l-16,32H24a8,8,0,0,0-8,8c0,40,42.15,40,56,40H440c13.85,0,56,0,56-40a8,8,0,0,0-8-8H340.94l-16-32H456A40.05,40.05,0,0,0,496,376ZM204.94,416H307.06l16,32H188.94ZM479,464c-2.79,9.85-12.45,16-39,16H72c-26.58,0-36.24-6.15-39-16Z"
          transform="translate(-16 -32)"/>
    <rect style="fill: #13a0d3;" x="50.41" y="174.68" width="221.23" height="15.96" transform="translate(327.68 -10.36) rotate(90)"/>
    <rect style="fill: #13a0d3;" x="36.1" y="194.5" width="181.59" height="15.96" transform="translate(313.38 43.59) rotate(90)"/>
    <rect style="fill: #13a0d3;" x="100.75" y="72.05" width="68.25" height="15.96" transform="translate(253.75 128.06) rotate(180)"/>
    <rect style="fill: #13a0d3;" x="100.75" y="111.69" width="33" height="15.96" transform="translate(218.5 207.34) rotate(180)"/>
</svg>